<svg width="64" height="64" viewBox="0 0 64 64" fill="none" xmlns="http://www.w3.org/2000/svg">
  <!-- Background -->
  <rect width="64" height="64" rx="12" fill="url(#grad1)"/>
  
  <!-- Monitor/Browser Frame -->
  <path d="M16 12H48C50.2091 12 52 13.7909 52 16V36C52 38.2091 50.2091 40 48 40H16C13.7909 40 12 38.2091 12 36V16C12 13.7909 13.7909 12 16 12Z" 
        fill="rgba(255,255,255,0.1)" stroke="white" stroke-width="1.5" stroke-linejoin="round"/>
  
  <!-- Monitor Bezel -->
  <rect x="16" y="12" width="32" height="12" rx="2" fill="rgba(255,255,255,0.05)"/>
  
  <!-- Screen -->
  <rect x="18" y="26" width="28" height="12" rx="1" fill="url(#grad2)"/>
  
  <!-- AI Eye/Vision indicator (top right of screen) -->
  <circle cx="40" cy="30" r="2.5" fill="rgba(6,182,212,0.8)"/>
  <circle cx="40" cy="30" r="1" fill="white"/>
  
  <!-- Brain/Thinking indicator (center of screen) -->
  <circle cx="25" cy="32" r="2" fill="rgba(99,102,241,0.8)"/>
  <path d="M25 28M25 36M21 32M29 32" stroke="rgba(99,102,241,0.6)" stroke-width="0.5" stroke-linecap="round"/>
  
  <!-- Stand -->
  <path d="M26 40H38M22 42H42" stroke="white" stroke-width="1.5" stroke-linecap="round" stroke-linejoin="round"/>
  <path d="M28 42V46C28 47.1046 27.1046 48 26 48H38C36.8954 48 36 47.1046 36 46V42" 
        stroke="white" stroke-width="1" stroke-linecap="round" stroke-linejoin="round"/>
  
  <!-- Checkmark (automation complete) -->
  <path d="M32 50C35.866 50 39 46.866 39 43C39 39.134 35.866 36 32 36" 
        stroke="rgba(16,185,129,0.6)" stroke-width="0.8" stroke-linecap="round" fill="none" opacity="0.7"/>
  
  <!-- Gradients -->
  <defs>
    <linearGradient id="grad1" x1="0" y1="0" x2="64" y2="64">
      <stop offset="0%" style="stop-color:#6366F1;stop-opacity:1" />
      <stop offset="100%" style="stop-color:#06B6D4;stop-opacity:1" />
    </linearGradient>
    <linearGradient id="grad2" x1="0" y1="0" x2="28" y2="12">
      <stop offset="0%" style="stop-color:#10B981;stop-opacity:0.3" />
      <stop offset="100%" style="stop-color:#06B6D4;stop-opacity:0.3" />
    </linearGradient>
  </defs>
</svg>
